{"title":"[MARATHI] Aaji Aajoba 2011 x264 AAC - CFSI [TMB]","uid":8414140,"size":431949336,"categoryP":"video","categoryS":"movies","magnet":"?xt=urn:btih:c482fc3dd49497046e9c7db06693c8268020a48f&amp;dn=%5BMARATHI%5D+Aaji+Aajoba+2011+x264+AAC+-+CFSI+%5BTMB%5D&amp;tr=udp%3A%2F%2Ftracker.openbittorrent.com%3A80&amp;tr=udp%3A%2F%2Fopen.demonii.com%3A1337&amp;tr=udp%3A%2F%2Ftracker.coppersurfer.tk%3A6969&amp;tr=udp%3A%2F%2Fexodus.desync.com%3A6969","seeders":1,"leechers":0,"uploader":"SJonam","files":2,"time":1366990671,"description":" &lt;a href=&quot;http://desibbrg.org/images/66952052392581364616.gif&quot; rel=&quot;nofollow&quot; target=&quot;_NEW&quot;&gt;http://desibbrg.org/images/66952052392581364616.gif&lt;/a&gt; &lt;a href=&quot;\nhttp://desibbrg.org/images/75494732637696697091.png&quot; rel=&quot;nofollow&quot; target=&quot;_NEW&quot;&gt;\nhttp://desibbrg.org/images/75494732637696697091.png&lt;/a&gt; &lt;a href=&quot;\nhttp://desibbrg.org/images/68236198130836909750.png&quot; rel=&quot;nofollow&quot; target=&quot;_NEW&quot;&gt;\nhttp://desibbrg.org/images/68236198130836909750.png&lt;/a&gt; &lt;a href=&quot;\nhttp://desibbrg.org/images/30960950502221625431.png&quot; rel=&quot;nofollow&quot; target=&quot;_NEW&quot;&gt;\nhttp://desibbrg.org/images/30960950502221625431.png&lt;/a&gt; &lt;a href=&quot;\nhttp://desibbrg.org/images/70507487519397704399.png&quot; rel=&quot;nofollow&quot; target=&quot;_NEW&quot;&gt;\nhttp://desibbrg.org/images/70507487519397704399.png&lt;/a&gt; &lt;a href=&quot;\nhttp://desibbrg.org/images/70622302195051363901.png&quot; rel=&quot;nofollow&quot; target=&quot;_NEW&quot;&gt;\nhttp://desibbrg.org/images/70622302195051363901.png&lt;/a&gt;\n\nInfo - \nCast\nAshok Shinde\nMedha Gokhale\nMihir Amrutkar\n\nDirectors\nMilind Dastane\n\nProducers\nCHILDREN FILM SOCIETY INDIA\n\nWriters\nMilind Dastane\n\nReleases on 1st Dec 2011\n\nPlot - \nAaji Aajoba, is story about two kids Akshay and Tanvi who are part of a nuclear family. There's is a typical urban family where both the parents are so engrossed in their career and routine that they don't have time to sit and have a conversation with their kids. Result? Kids are lonely they don't understand whom to go to with their perpetual questions and queries, they don't have the warmth of relationships that will pacify the emotional need of love and affection and last but not the least understanding of their world. The kids are not happy and one they come across an old couple who not only understand the kids world but they also have all the time in the world to look after the kids and take every thing which kid say or want seriously and see it to that their emotional needs and wants are fulfilled. The kids want these grand parents home but there are social barriers, structures, rules and regulations, that don't allow this movement. But the kids don't give up. Do they get their grandparents? If yes, How? This film is a journey in the minds and heart of children who want some thing more than plastic toys and computer games, who want something more that vitamins and power packed food. This film is about parents who are running so fast that they are missing out the pleasure of the journey called 'life' This film is about us and our children, and depicts the urgent need of a bridge of warmth, caring and understanding in between our world and the innocent world of kids. \n\nMedia Info - \nVideo\nFormat                         : AVC\nFormat/Info                    : Advanced Video Codec\nFormat profile                 : &lt;a class=&quot;__cf_email__&quot; href=&quot;/cdn-cgi/l/email-protection&quot; data-cfemail=&quot;f1bc90989fb1bdc2dfc1&quot;&gt;[email&amp;#160;protected]&lt;/a&gt;&lt;script cf-hash='f9e31' type=&quot;text/javascript&quot;&gt;\n/* &lt;![CDATA[ */!function(){try{var t=&quot;currentScript&quot;in document?document.currentScript:function(){for(var t=document.getElementsByTagName(&quot;script&quot;),e=t.length;e--;)if(t[e].getAttribute(&quot;cf-hash&quot;))return t[e]}();if(t&amp;&amp;t.previousSibling){var e,r,n,i,c=t.previousSibling,a=c.getAttribute(&quot;data-cfemail&quot;);if(a){for(e=&quot;&quot;,r=parseInt(a.substr(0,2),16),n=2;a.length-n;n+=2)i=parseInt(a.substr(n,2),16)^r,e+=String.fromCharCode(i);e=document.createTextNode(e),c.parentNode.replaceChild(e,c)}}}catch(u){}}();/* ]]&gt; */&lt;/script&gt;\nFormat settings, CABAC         : Yes\nFormat settings, ReFrames      : 4 frames\nCodec ID                       : avc1\nCodec ID/Info                  : Advanced Video Coding\nDuration                       : 1h 1mn\nBit rate mode                  : Variable\nBit rate                       : 749 Kbps\nWidth                          : 852 pixels\nHeight                         : 440 pixels\nDisplay aspect ratio           : 1.936\nFrame rate mode                : Variable\nFrame rate                     : 24.000 fps\nMinimum frame rate             : 23.438 fps\nMaximum frame rate             : 24.390 fps\nColor space                    : YUV\nChroma subsampling             : 4:2:0\nBit depth                      : 8 bits\nScan type                      : Progressive\nBits/(Pixel*Frame)             : 0.083\nStream size                    : 332 MiB (82%)\nWriting library                : x264 core 120\n\nAudio\nFormat                         : AAC\nFormat/Info                    : Advanced Audio Codec\nFormat profile                 : LC\nCodec ID                       : 40\nDuration                       : 1h 1mn\nBit rate mode                  : Variable\nBit rate                       : 160 Kbps\nMaximum bit rate               : 250 Kbps\nChannel(s)                     : 2 channels\nChannel positions              : Front: L R\nSampling rate                  : 44.1 KHz\nCompression mode               : Lossy\nDelay relative to video        : 83ms\nStream size                    : 70.8 MiB (17%)\n\nSample in Torrent... ;)\n\nRipper : Saket\n\nSeeding 24x7... Extreme Seeding...\n\n\nEnjoy!\n","torrent":{"xt":"urn:btih:c482fc3dd49497046e9c7db06693c8268020a48f","amp;dn":"%5BMARATHI%5D+Aaji+Aajoba+2011+x264+AAC+-+CFSI+%5BTMB%5D","amp;tr":["udp%3A%2F%2Ftracker.openbittorrent.com%3A80","udp%3A%2F%2Fopen.demonii.com%3A1337","udp%3A%2F%2Ftracker.coppersurfer.tk%3A6969","udp%3A%2F%2Fexodus.desync.com%3A6969"],"infoHash":"c482fc3dd49497046e9c7db06693c8268020a48f","infoHashBuffer":{"type":"Buffer","data":[196,130,252,61,212,148,151,4,110,156,125,176,102,147,200,38,128,32,164,143]},"announce":[],"urlList":[]}}